<svg xmlns="http://www.w3.org/2000/svg" viewBox="0 0 38.08 38.06"><defs><style>.cls-1{fill:none;stroke:#323c41;stroke-linecap:round;stroke-linejoin:round;stroke-width:2px;}</style></defs><title>Asset 12</title><g id="Layer_2" data-name="Layer 2"><g id="Layer_1-2" data-name="Layer 1"><path class="cls-1" d="M10.65,37.06a2.8,2.8,0,0,1-2.8-2.8c0-2.69,0-6.13,0-7.1a.89.89,0,0,0-.71-1A9.45,9.45,0,0,1,4.82,9.69,9,9,0,0,1,9.33,8a.86.86,0,0,0,.82-.68,9.41,9.41,0,0,1,17.76,0,.86.86,0,0,0,.81.66c6.16.92,9.8,6.47,7.81,12.37a9,9,0,0,1-5.66,5.82.84.84,0,0,0-.69.95c0,1,0,4.46,0,7.16a2.8,2.8,0,0,1-2.8,2.8Z"/><line class="cls-1" x1="23.04" y1="32.23" x2="23.04" y2="26.51"/><line class="cls-1" x1="15.04" y1="32.23" x2="15.04" y2="26.51"/></g></g></svg>