<svg width="12" height="14" viewBox="0 0 12 14" fill="none" xmlns="http://www.w3.org/2000/svg">
<path d="M11.4136 10.9293C11.1189 10.2311 10.6911 9.59696 10.1542 9.06211C9.61898 8.52572 8.98491 8.09805 8.28705 7.80274C8.2808 7.79961 8.27455 7.79805 8.2683 7.79492C9.24174 7.0918 9.87455 5.94649 9.87455 4.6543C9.87455 2.51367 8.14018 0.779297 5.99955 0.779297C3.85893 0.779297 2.12455 2.51367 2.12455 4.6543C2.12455 5.94649 2.75736 7.0918 3.7308 7.79648C3.72455 7.79961 3.7183 7.80117 3.71205 7.8043C3.01205 8.09961 2.38393 8.52305 1.84486 9.06367C1.30847 9.59893 0.880808 10.233 0.585488 10.9309C0.295367 11.6141 0.138898 12.3466 0.124551 13.0887C0.124134 13.1053 0.127059 13.1219 0.133154 13.1375C0.139249 13.153 0.14839 13.1671 0.160039 13.1791C0.171688 13.191 0.185609 13.2005 0.200982 13.207C0.216355 13.2135 0.232869 13.2168 0.249551 13.2168H1.18705C1.2558 13.2168 1.31049 13.1621 1.31205 13.0949C1.3433 11.8887 1.82768 10.759 2.68393 9.90274C3.56986 9.0168 4.74643 8.5293 5.99955 8.5293C7.25268 8.5293 8.42924 9.0168 9.31518 9.90274C10.1714 10.759 10.6558 11.8887 10.6871 13.0949C10.6886 13.1637 10.7433 13.2168 10.8121 13.2168H11.7496C11.7662 13.2168 11.7827 13.2135 11.7981 13.207C11.8135 13.2005 11.8274 13.191 11.8391 13.1791C11.8507 13.1671 11.8599 13.153 11.8659 13.1375C11.872 13.1219 11.875 13.1053 11.8746 13.0887C11.8589 12.3418 11.7042 11.6152 11.4136 10.9293ZM5.99955 7.3418C5.28236 7.3418 4.60736 7.06211 4.09955 6.5543C3.59174 6.04648 3.31205 5.37148 3.31205 4.6543C3.31205 3.93711 3.59174 3.26211 4.09955 2.7543C4.60736 2.24648 5.28236 1.9668 5.99955 1.9668C6.71674 1.9668 7.39174 2.24648 7.89955 2.7543C8.40736 3.26211 8.68705 3.93711 8.68705 4.6543C8.68705 5.37148 8.40736 6.04648 7.89955 6.5543C7.39174 7.06211 6.71674 7.3418 5.99955 7.3418Z" fill="white"/>
</svg>
