<svg width="10" height="10" viewBox="0 0 10 10" fill="none" xmlns="http://www.w3.org/2000/svg">
<path d="M5.40168 0.179688H4.59811C4.52668 0.179688 4.49097 0.215402 4.49097 0.28683V4.49219H0.500209C0.428781 4.49219 0.393066 4.5279 0.393066 4.59933V5.4029C0.393066 5.47433 0.428781 5.51005 0.500209 5.51005H4.49097V9.7154C4.49097 9.78683 4.52668 9.82255 4.59811 9.82255H5.40168C5.47311 9.82255 5.50882 9.78683 5.50882 9.7154V5.51005H9.50021C9.57164 5.51005 9.60735 5.47433 9.60735 5.4029V4.59933C9.60735 4.5279 9.57164 4.49219 9.50021 4.49219H5.50882V0.28683C5.50882 0.215402 5.47311 0.179688 5.40168 0.179688Z" fill="#293452"/>
</svg>
